<svg width="29" height="17" viewBox="0 0 29 17" fill="none" xmlns="http://www.w3.org/2000/svg">
<g clip-path="url(#clip0_121_221)">
<path d="M21.1147 6.48278C23.3395 5.50395 24.7923 4.03402 24.8716 2.40338C24.8716 2.40338 24.2842 1.95083 22.3876 1.25305C20.7223 0.64025 19.4518 0.5 19.4518 0.5L19.4576 4.13325C19.4576 4.67616 19.2397 5.2303 18.8282 5.72086C17.5694 5.41697 16.1783 5.24639 14.719 5.24593C13.2589 5.24639 11.8652 5.41743 10.605 5.72186C10.1936 5.23122 9.9751 4.67661 9.9751 4.13325L9.98058 0.5C9.98058 0.5 8.71093 0.64025 7.04456 1.25305C5.14813 1.95083 4.56173 2.40338 4.56173 2.40338C4.64031 4.03448 6.0937 5.50487 8.32098 6.48369C6.09562 7.46252 4.64286 8.93235 4.56411 10.5625C4.56411 10.5625 5.15105 11.0155 7.04749 11.7129C8.7134 12.3257 9.98342 12.4659 9.98342 12.4659L9.97757 8.83267C9.97757 8.28976 10.1955 7.73516 10.6075 7.24506C11.8662 7.5495 13.257 7.71953 14.7161 7.71953C16.1768 7.71953 17.5704 7.54895 18.8302 7.24351C19.2416 7.73415 19.4596 8.28976 19.4596 8.83267L19.4547 12.4659C19.4547 12.4659 20.7247 12.3257 22.3906 11.7129C24.2871 11.0155 24.8739 10.5625 24.8739 10.5625C24.7948 8.93144 23.3415 7.46114 21.1147 6.48278ZM14.7171 7.30025H14.7156L14.6741 7.29933C13.3566 7.29933 12.2826 6.9768 11.4948 6.48369C12.2826 5.98966 13.3572 5.66668 14.6771 5.66668L14.7176 5.66613H14.7196L14.761 5.66668C16.079 5.66668 17.1526 5.98921 17.9403 6.48223C17.1526 6.9758 16.078 7.29924 14.7587 7.29924L14.7171 7.30025ZM1.64947 16.4912C1.01126 16.4912 1.00002 16.0045 1.00002 15.8169V14.9314C1.00002 14.8777 0.995637 14.8063 1.10948 14.8063H1.43932C1.5464 14.8063 1.53955 14.8826 1.53955 14.9315V15.8168C1.53955 15.8799 1.55125 16.049 1.78341 16.049H2.33655C2.56424 16.049 2.57749 15.88 2.57749 15.8169V14.9314C2.57749 14.8826 2.5711 14.8063 2.67763 14.8063H3.00994C3.13054 14.8063 3.11985 14.8826 3.11985 14.9315V15.8168C3.11985 16.0045 3.10861 16.4912 2.46803 16.4912H1.64947ZM4.706 16.3843C4.48069 16.0809 4.15916 15.6988 3.83133 15.2951V16.3731C3.83133 16.4201 3.84303 16.4914 3.7311 16.4914H3.42319C3.31182 16.4914 3.32506 16.4201 3.32506 16.3731V14.9316C3.32506 14.8827 3.32013 14.8064 3.42328 14.8064H4.0233C4.19288 14.8064 4.43427 15.148 4.59261 15.3733C4.71477 15.5453 4.94054 15.8038 5.09203 15.9978V14.9316C5.09203 14.8827 5.08518 14.8064 5.1971 14.8064H5.53133C5.63887 14.8064 5.63201 14.8827 5.63201 14.9316V16.4914H5.01629C4.88435 16.4914 4.82624 16.5002 4.706 16.3843ZM7.24265 16.0481C7.51237 16.0481 7.49282 15.7892 7.49282 15.6708C7.49282 15.2736 7.38098 15.2579 7.20254 15.2579H6.35474V16.0481H7.24265ZM5.8343 16.4918V14.8093H7.32132C7.41223 14.8093 8.02111 14.7986 8.02111 15.4383C8.02111 16.0925 8.09237 16.4918 7.33457 16.4918H6.53309L6.35912 16.1395V16.4918H5.8343ZM8.60358 14.8201H9.97327C10.0896 14.8201 10.074 14.8959 10.074 15.0367C10.074 15.1676 10.0916 15.2413 9.97327 15.2413H8.89093C8.86206 15.2413 8.76438 15.2258 8.76438 15.3283C8.76438 15.431 8.74428 15.4716 8.85329 15.4716H9.81055C9.81055 15.4716 9.94888 15.7349 9.9645 15.7794C9.98698 15.8195 9.9846 15.8576 9.9 15.8576H8.90902L8.75506 15.5585V16.0002C8.75506 16.1029 8.84689 16.0828 8.87329 16.0828H9.99776C10.1096 16.0828 10.1004 16.1605 10.1004 16.2876C10.1004 16.4244 10.1096 16.4996 9.99776 16.4996H8.57425C8.45602 16.4996 8.22431 16.464 8.22431 16.0941V15.1656C8.22431 15.0698 8.27566 14.8201 8.60358 14.8201ZM11.6371 15.2532H10.9701C10.8592 15.2532 10.863 15.2913 10.863 15.325V15.6261H11.5501C11.8829 15.6261 11.8829 15.5429 11.8829 15.456C11.8829 15.2821 11.8697 15.2532 11.6371 15.2532ZM10.4438 14.8091H11.943C12.1438 14.8091 12.4356 14.807 12.4356 15.349C12.4356 15.7037 12.3604 15.7214 12.1995 15.8308C12.4698 15.8777 12.4341 16.2232 12.4341 16.4021C12.4341 16.4934 12.4008 16.4915 12.3735 16.4915H11.9342C11.8423 16.4915 11.8648 16.3463 11.8648 16.2706C11.8648 16.0629 11.749 16.0722 11.704 16.0722H11.0571C10.995 15.9647 10.8743 15.7238 10.8743 15.7238V16.4221C10.8743 16.4827 10.8137 16.4915 10.7917 16.4915H10.3504C10.3744 16.4915 10.305 16.4959 10.305 16.4353V14.9542C10.305 14.8492 10.3789 14.8091 10.4438 14.8091ZM14.8386 15.2861L14.562 15.7904L14.5864 15.8148H15.102L15.1289 15.7904C15.1108 15.7523 14.888 15.3287 14.8655 15.2836L14.8386 15.2861ZM15.017 14.8204C15.1264 14.8204 15.233 14.8693 15.3493 15.0945C15.4279 15.2548 15.9724 16.2385 16.0857 16.4443V16.5H15.5189L15.3557 16.2052H14.6666C14.6666 16.2052 14.5508 15.9399 14.5176 15.8666C14.4751 15.9355 14.2474 16.3685 14.1686 16.4999H13.6003V16.4643C13.7162 16.2459 14.5083 14.8204 14.5083 14.8204H15.017ZM17.5724 15.2532H16.9054C16.7939 15.2532 16.7983 15.2913 16.7983 15.325V15.6261H17.4854C17.8181 15.6261 17.8181 15.5429 17.8181 15.456C17.8181 15.2821 17.805 15.2532 17.5724 15.2532ZM16.3791 14.8091H17.8783C18.0791 14.8091 18.3714 14.807 18.3714 15.349C18.3714 15.7037 18.2961 15.7214 18.1347 15.8308C18.4045 15.8777 18.3689 16.2232 18.3689 16.4021C18.3689 16.4934 18.3356 16.4915 18.3088 16.4915H17.8695C17.7776 16.4915 17.8 16.3463 17.8 16.2706C17.8 16.0629 17.6843 16.0722 17.6392 16.0722H16.9923C16.9298 15.9647 16.8091 15.7238 16.8091 15.7238V16.4221C16.8091 16.4827 16.7495 16.4915 16.7269 16.4915H16.2853C16.3096 16.4915 16.2408 16.4959 16.2408 16.4353V14.9542C16.2408 14.8492 16.3147 14.8091 16.3791 14.8091ZM19.6811 16.4912C19.5692 16.2816 19.259 15.7035 19.0493 15.3248V16.373C19.0493 16.4199 19.0557 16.4912 18.9496 16.4912H18.6457C18.5318 16.4912 18.5406 16.42 18.5406 16.373V14.9314C18.5406 14.8826 18.5342 14.8088 18.6457 14.8088H19.17C19.2481 14.8088 19.3591 14.7907 19.4847 15.0409C19.5785 15.2412 19.7774 15.6571 19.9132 15.8775C20.0535 15.6571 20.2567 15.2412 20.3506 15.0409C20.4733 14.7907 20.5822 14.8088 20.6692 14.8088H21.1911C21.2986 14.8088 21.2874 14.8826 21.2874 14.9314V16.373C21.2874 16.4199 21.3025 16.4912 21.1911 16.4912H20.8857C20.7743 16.4912 20.783 16.42 20.783 16.373V15.3248C20.5715 15.7035 20.2631 16.2816 20.1468 16.4912H19.6811ZM22.9603 16.0627C23.213 16.0627 23.2036 15.8023 23.2036 15.6278C23.2036 15.4715 23.2393 15.2261 22.9114 15.2261H22.3554C22.0299 15.2261 22.068 15.4715 22.068 15.6278C22.068 15.8023 22.0524 16.0627 22.3046 16.0627H22.9603ZM21.961 16.4957C21.4635 16.4957 21.4856 15.9621 21.4856 15.6171C21.4856 15.3 21.4499 14.8048 22.0724 14.8H23.1773C23.8018 14.8 23.7612 15.3019 23.7612 15.6171C23.7612 15.962 23.7862 16.4957 23.2814 16.4957H21.961ZM24.5931 16.4912C23.9544 16.4912 23.9436 16.0045 23.9436 15.8169V14.9314C23.9436 14.8777 23.9392 14.8063 24.0531 14.8063H24.3835C24.49 14.8063 24.4836 14.8826 24.4836 14.9315V15.8168C24.4836 15.8799 24.4949 16.049 24.7269 16.049H25.2802C25.5078 16.049 25.521 15.88 25.521 15.8169V14.9314C25.521 14.8826 25.5142 14.8063 25.6212 14.8063H25.9535C26.0741 14.8063 26.0635 14.8826 26.0635 14.9315V15.8168C26.0635 16.0045 26.0522 16.4912 25.4115 16.4912H24.5931ZM27.611 15.2532H26.944C26.8325 15.2532 26.8369 15.2913 26.8369 15.325V15.6261H27.524C27.8567 15.6261 27.8567 15.5429 27.8567 15.456C27.8567 15.2821 27.8436 15.2532 27.611 15.2532ZM26.4171 14.8091H27.9169C28.1177 14.8091 28.4104 14.807 28.4104 15.349C28.4104 15.7037 28.3342 15.7214 28.1734 15.8308C28.4437 15.8777 28.408 16.2232 28.408 16.4021C28.408 16.4934 28.3747 16.4915 28.3474 16.4915H27.9081C27.8167 16.4915 27.8386 16.3463 27.8386 16.2706C27.8386 16.0629 27.7229 16.0722 27.6784 16.0722H27.031C26.9688 15.9647 26.8482 15.7238 26.8482 15.7238V16.4221C26.8482 16.4827 26.7875 16.4915 26.7655 16.4915H26.3243C26.3482 16.4915 26.2794 16.4959 26.2794 16.4353V14.9542C26.2794 14.8492 26.3532 14.8091 26.4171 14.8091Z" fill="#1A2530"/>
</g>
<defs>
<clipPath id="clip0_121_221">
<rect width="28" height="16" fill="white" transform="translate(0.5 0.5)"/>
</clipPath>
</defs>
</svg>
