<svg width="31" height="21" viewBox="0 0 31 21" fill="none" xmlns="http://www.w3.org/2000/svg">
<g clip-path="url(#clip0_121_233)">
<path d="M18.2764 7.56825L11.9053 14.6365H17.3684L23.7395 7.56825L17.3684 0.5H11.9053L18.2764 7.56825Z" fill="#1A2530"/>
<path d="M9.9757 6.05639L7.09889 5.10694L8.9025 7.6087L7.12869 10.0954L9.9757 9.14594L11.7048 11.6477V8.55815L14.6114 7.6087L11.7048 6.64419V3.5697L9.9757 6.05639ZM2.8081 17.5997C3.06021 17.5997 3.30796 17.7219 3.47312 17.927L3.53399 18.0012L4.31198 17.4644L4.24243 17.3772C3.89907 16.9451 3.37315 16.6964 2.8081 16.6964C1.81277 16.6964 1 17.4776 1 18.4332C1 19.3888 1.81277 20.17 2.8081 20.17C3.36879 20.17 3.89039 19.9256 4.23374 19.5023L4.30329 19.415L3.52526 18.8783L3.46443 18.9525C3.29492 19.1576 3.05585 19.2754 2.80378 19.2754C2.34305 19.2754 1.95187 18.8914 1.95187 18.4375C1.95623 17.9837 2.34737 17.5997 2.8081 17.5997ZM11.1633 18.6267L9.76507 16.7772H8.87604V20.0488H9.73918V18.2167L11.0425 20.0488H12.0265V16.7772H11.1633V18.6267ZM14.4999 19.1066C14.4999 19.1327 14.4651 19.1371 14.4477 19.1371C14.4346 19.1371 14.4085 19.1327 14.3955 19.1022L13.6733 16.7772H12.6727L13.7386 20.0488H15.1611L16.227 16.7772H15.2264L14.4999 19.1066ZM22.5791 18.7096C22.9279 18.509 23.1284 18.1425 23.0979 17.7412C23.0587 17.196 22.5834 16.7772 22.0167 16.7772H20.3468V20.0488H21.2188V18.871H21.6112C21.6504 18.871 21.6853 18.8754 21.7115 18.9103L22.2739 20.0488H23.2549L22.5791 18.7096ZM21.9705 18.0293H21.195V17.6658H21.9705C22.0762 17.6658 22.1643 17.7385 22.1643 17.8475C22.1643 17.9566 22.0762 18.0293 21.9705 18.0293ZM27.415 20.0488H30V19.1764H28.2767V18.7838H29.8277V17.9986H28.2767V17.6496H30V16.7772H27.415V20.0488ZM25.4232 18.0207C24.9597 17.9165 24.8254 17.847 24.8254 17.6951V17.6864C24.8254 17.5648 24.9164 17.4693 25.1416 17.4693C25.4405 17.4693 25.6831 17.5648 26.008 17.7602L26.5278 17.1437C26.1639 16.8527 25.7264 16.6964 25.1589 16.6964C24.3532 16.6964 23.8724 17.148 23.8724 17.7732V17.7819C23.8724 18.4723 24.4399 18.6763 25.1546 18.837C25.6094 18.9412 25.735 19.0193 25.735 19.1583V19.1669C25.735 19.3103 25.5748 19.3971 25.3235 19.3971C24.9337 19.3971 24.5525 19.2581 24.2233 18.9933L23.6992 19.6142C24.1107 19.9832 24.7084 20.17 25.3019 20.17C26.1162 20.17 26.688 19.7618 26.688 19.0758V19.0671C26.688 18.4375 26.1942 18.19 25.4232 18.0207ZM6.43245 16.6964C5.46309 16.6964 4.67549 17.4776 4.67549 18.4332C4.67549 19.3932 5.46309 20.17 6.43245 20.17C7.40181 20.17 8.18942 19.3888 8.18942 18.4332C8.18942 17.4732 7.40181 16.6964 6.43245 16.6964ZM6.43245 19.2814C5.97487 19.2814 5.60446 18.911 5.60446 18.4534C5.60446 17.9958 5.97487 17.6254 6.43245 17.6254C6.89003 17.6254 7.26045 17.9958 7.26045 18.4534C7.26045 18.911 6.89003 19.2814 6.43245 19.2814ZM16.8733 20.0488H19.4582V19.1764H17.7349V18.7838H19.2859V17.9986H17.7349V17.6496H19.4582V16.7772H16.8733V20.0488Z" fill="#1A2530"/>
</g>
<defs>
<clipPath id="clip0_121_233">
<rect width="30" height="20" fill="white" transform="translate(0.5 0.5)"/>
</clipPath>
</defs>
</svg>
