<svg width="34" height="17" viewBox="0 0 34 17" fill="none" xmlns="http://www.w3.org/2000/svg">
<g clip-path="url(#clip0_121_218)">
<path d="M18.254 0.554742C18.1486 0.570298 18.0474 0.958111 17.8439 1.16022C17.6952 1.3058 17.5091 1.297 17.4107 1.47723C17.3731 1.54428 17.3852 1.65939 17.343 1.76946C17.2596 1.99035 16.9674 2.00998 16.9674 2.25039C16.9663 2.51022 17.2109 2.55957 17.4232 2.74419C17.5889 2.89224 17.6047 2.99447 17.8051 3.06657C17.9766 3.1245 18.2312 2.93461 18.4606 3.00295C18.6486 3.05873 18.8287 3.09907 18.8714 3.29249C18.9089 3.47101 18.8687 3.74703 18.6404 3.71517C18.5635 3.70638 18.2295 3.59427 17.8201 3.63793C17.3254 3.69415 16.7611 3.85539 16.7058 4.40712C16.6754 4.71501 17.0568 5.07836 17.4249 5.00445C17.6792 4.95467 17.559 4.65429 17.6972 4.50871C17.879 4.32173 18.9089 5.16065 19.8657 5.16065C20.2687 5.16065 20.5684 5.05873 20.8661 4.74709C20.894 4.72306 20.9278 4.67221 20.9708 4.66877C21.0115 4.67221 21.0822 4.71222 21.1056 4.72917C21.876 5.3486 22.4589 6.59153 25.2919 6.60569C25.6905 6.60805 26.144 6.79847 26.5149 7.1364C26.8454 7.44193 27.0384 7.91771 27.2264 8.40003C27.5102 9.12373 28.0178 9.82791 28.7884 10.6112C28.8303 10.6532 29.4647 11.1463 29.5155 11.1829C29.5233 11.1886 29.5701 11.2997 29.5538 11.3617C29.5351 11.8318 29.4667 13.1976 30.4851 13.2596C30.734 13.2721 30.669 13.097 30.669 12.9769C30.6684 12.7387 30.625 12.5024 30.7502 12.2585C30.9217 11.9236 30.3866 11.7694 30.4021 11.045C30.4133 10.5048 29.9595 10.597 29.7295 10.1855C29.5968 9.9471 29.4789 9.82072 29.4873 9.52914C29.5392 7.88831 29.1382 6.80995 28.9384 6.54508C28.7823 6.34532 28.6533 6.26604 28.7957 6.17357C29.6459 5.61175 29.8386 5.08984 29.8386 5.08984C30.2908 4.02746 30.6971 3.05712 31.2577 2.62973C31.3703 2.54133 31.66 2.32527 31.8374 2.24063C32.3607 1.99399 32.6357 1.84434 32.7878 1.69672C33.0279 1.46264 33.2182 0.973988 32.9875 0.677899C32.7011 0.312508 32.2055 0.602374 31.9872 0.732182C30.4245 1.65939 30.1942 3.29518 29.653 4.23472C29.2212 4.98514 28.519 5.53655 27.8913 5.58161C27.4212 5.61647 26.9135 5.52132 26.4086 5.29946C25.1802 4.76092 24.5082 4.06576 24.349 3.94271C24.0191 3.68803 21.4574 1.17277 19.3814 1.07011C19.3814 1.07011 19.1237 0.553992 19.059 0.545838C18.9073 0.526206 18.7519 0.853728 18.6404 0.892027C18.5357 0.926571 18.3597 0.537471 18.254 0.554742ZM9.11556 15.5656C8.9202 15.5609 8.75424 15.4007 8.75424 15.2026L8.75489 8.72723H6.62058V15.8647C6.62058 16.2149 6.90401 16.5 7.25191 16.5H10.9817C11.3318 16.5 11.6119 16.2149 11.6119 15.8647V8.72712H9.47966L9.47795 15.2026C9.47795 15.4007 9.31198 15.5609 9.11556 15.5656ZM16.2605 8.72723H13.031C12.6482 8.72723 12.337 9.03802 12.337 9.42411V16.5H14.4734V10.0094C14.4737 9.96232 14.4832 9.91573 14.5015 9.87233C14.5198 9.82892 14.5465 9.78955 14.58 9.75645C14.6136 9.72336 14.6533 9.69719 14.6969 9.67945C14.7406 9.66171 14.7873 9.65273 14.8344 9.65305C15.0336 9.65305 15.1938 9.80688 15.198 10.004V16.5H17.3254V10.004C17.3281 9.80688 17.4879 9.65315 17.687 9.65315C17.8841 9.65315 18.0475 9.81053 18.0488 10.0093V16.5H20.1851V9.42411C20.1851 9.03802 19.8728 8.72712 19.4908 8.72712L16.2605 8.72723ZM5.1972 14.5469H3.04101V16.5H0.908203V8.72723H5.21072C5.59585 8.72723 5.89655 9.04016 5.89655 9.42733V13.8462C5.89681 13.9382 5.8789 14.0294 5.84385 14.1144C5.80881 14.1995 5.75732 14.2768 5.69233 14.3419C5.62735 14.407 5.55015 14.4586 5.46517 14.4938C5.38018 14.529 5.28918 14.547 5.1972 14.5469ZM3.76493 10.0229C3.76556 9.9749 3.75671 9.92721 3.73888 9.8826C3.72105 9.83798 3.69458 9.79733 3.66101 9.76296C3.62743 9.7286 3.5874 9.7012 3.54321 9.68234C3.49902 9.66348 3.45155 9.65352 3.4035 9.65305H3.04112V13.5844H3.4035C3.59189 13.5844 3.76664 13.4347 3.76493 13.2193V10.0229Z" fill="#1A2530"/>
<path d="M23.7659 16.5V14.5486H23.0408V16.5H20.9088V9.42416C20.9088 9.03806 21.22 8.72717 21.6028 8.72717H25.2041C25.5876 8.72717 25.8985 9.03806 25.8985 9.42416V16.5H23.7659ZM23.7659 13.5858V10.0067C23.7608 9.80896 23.6016 9.65695 23.4025 9.65695C23.2053 9.65695 23.0428 9.81497 23.0408 10.0125V13.5858H23.7659Z" fill="#1A2530"/>
</g>
<defs>
<clipPath id="clip0_121_218">
<rect width="33" height="16" fill="white" transform="translate(0.5 0.5)"/>
</clipPath>
</defs>
</svg>
