<svg width="27" height="15" viewBox="0 0 27 15" fill="none" xmlns="http://www.w3.org/2000/svg">
<g clip-path="url(#clip0_121_299)">
<path d="M8.23367 7.83311L10.7164 0.853027H9.07526L7.93911 3.88212L8.19159 0.853027H6.46631L3.98361 7.83311H5.58264L6.80295 4.45282L6.59255 7.74531L8.23367 7.83311ZM10.1693 7.83311L12.652 0.853027H11.0951L8.5703 7.83311H10.1693ZM14.6719 7.39412L14.5877 3.88212L16.9442 1.02863L14.6719 7.39412ZM26.1176 4.93572L18.1224 7.08682L18.3328 6.42832H16.6496L17.1967 4.76012H18.6274L19.0482 3.48702L17.6175 3.57482L18.1224 2.17003H19.511L19.9739 0.896926H15.4714L13.8303 2.91633L14.6298 0.853027H13.0308L10.5481 7.83311H12.1892L13.2412 4.84792V7.83311H15.3451L7.81287 9.89641C7.02736 10.1305 6.32602 10.233 5.70888 10.2037C5.09169 10.1744 4.6148 9.99883 4.27817 9.67691C3.52073 9.09159 3.2542 8.19893 3.47865 6.99902C3.6189 6.20882 3.92747 5.4479 4.40441 4.71622C3.28226 5.94542 2.45468 6.9844 1.9217 7.83311C1.33258 8.74039 0.953863 9.63301 0.785544 10.511C0.617224 11.389 0.715397 12.106 1.0801 12.6621C2.06195 14.3595 4.20802 14.4766 7.51831 13.0133L26.1176 4.93572Z" fill="#1A2530"/>
</g>
<defs>
<clipPath id="clip0_121_299">
<rect width="26" height="14" fill="white" transform="translate(0.5 0.5)"/>
</clipPath>
</defs>
</svg>
