<svg width="28" height="19" viewBox="0 0 28 19" fill="none" xmlns="http://www.w3.org/2000/svg">
<g clip-path="url(#clip0_121_223)">
<path d="M25.1858 18C23.8518 18 23.0605 17.3173 23 16.334H24.2756C24.2756 16.6618 24.4572 17.0981 25.2463 17.1253C25.7933 17.1253 26.096 16.7975 26.096 16.5512C26.0355 16.1691 25.5491 16.1419 25.0647 16.0584C24.627 16.0067 24.1981 15.8972 23.7892 15.7327C23.5812 15.6163 23.4091 15.4454 23.2913 15.2382C23.1736 15.0311 23.1147 14.7956 23.1211 14.5574C23.1211 13.6827 23.8518 13 25.1253 13C26.3403 13 27.1294 13.6284 27.1879 14.5845H25.9749C25.9749 14.3403 25.9144 13.929 25.1858 13.929C24.6994 13.929 24.3967 14.0104 24.3361 14.3653C24.3361 14.858 25.3674 14.8309 26.1566 15.0209C26.8851 15.213 27.3716 15.6764 27.3716 16.334C27.3716 17.5365 26.4008 18 25.1858 18Z" fill="#1A2530"/>
<path d="M19.1086 15.7182C19.1086 16.4115 19.6598 16.9816 20.3758 16.9816C21.0368 16.9816 21.6411 16.4115 21.6411 15.7182C21.6297 15.3864 21.4927 15.0713 21.2578 14.8368C21.0229 14.6022 20.7076 14.4657 20.3758 14.4548C20.0408 14.4563 19.7199 14.5898 19.4827 14.8263C19.2455 15.0628 19.1111 15.3833 19.1086 15.7182ZM20.319 17.9988C20.0206 17.9991 19.7251 17.9401 19.4496 17.8253C19.1742 17.7104 18.9243 17.542 18.7144 17.3299C18.5046 17.1177 18.3389 16.8661 18.2271 16.5894C18.1153 16.3127 18.0595 16.0166 18.063 15.7182C18.063 14.4548 19.0537 13.4623 20.319 13.4623C20.8152 13.4623 21.2566 13.5873 21.6411 13.8582V13.5115H22.6885V17.8984H21.6411V17.6256C21.2465 17.8769 20.7867 18.0067 20.319 17.9988ZM14.0456 15.7182C14.0456 16.4115 14.6517 16.9816 15.3127 16.9816C16.0287 16.9816 16.5799 16.4115 16.5799 15.7182C16.5774 15.3833 16.443 15.0628 16.2058 14.8263C15.9686 14.5898 15.6477 14.4563 15.3127 14.4548C14.9808 14.4657 14.6653 14.6021 14.43 14.8366C14.1948 15.0712 14.0574 15.3863 14.0456 15.7182ZM16.5799 12H17.6804V17.8984H16.5799V17.6256C16.2088 17.8833 15.7643 18.0142 15.3127 17.9988C14.0456 17.9988 13 16.9816 13 15.7182C13 14.4548 14.0456 13.4623 15.3127 13.4623C15.8071 13.4623 16.2484 13.5873 16.5799 13.8582V12Z" fill="#1A2530"/>
<path d="M12 18V14" stroke="#1A2530"/>
<path d="M7.11709 15.7188C7.11709 16.4122 7.7059 16.9824 8.47074 16.9824C9.17489 16.9824 9.8244 16.4122 9.8244 15.7188C9.8113 15.3869 9.66436 15.0721 9.41318 14.8376C9.162 14.6031 8.82523 14.4665 8.47074 14.4552C8.11292 14.4567 7.77015 14.5902 7.51675 14.8267C7.26335 15.0633 7.11975 15.3838 7.11709 15.7188ZM8.41207 17.9997C8.09313 18.0002 7.77725 17.9414 7.48279 17.8267C7.18832 17.7119 6.92112 17.5436 6.69673 17.3314C6.47234 17.1192 6.29522 16.8673 6.17564 16.5905C6.05606 16.3137 5.99641 16.0174 6.00017 15.7188C6.00017 14.4552 7.05841 13.4625 8.41207 13.4625C8.94018 13.4625 9.41162 13.5876 9.8244 13.8585V12H11V17.8993H9.8244V17.6265C9.40262 17.8773 8.91166 18.007 8.41207 17.9997Z" fill="#1A2530"/>
<path d="M2.11696 15.4864C2.11696 16.2505 2.76447 16.8789 3.46864 16.8789C4.23553 16.8789 4.82234 16.2505 4.82234 15.4864C4.82234 14.7495 4.23553 14.094 3.46864 14.094C3.11434 14.1064 2.77781 14.257 2.52694 14.5155C2.27608 14.7739 2.12956 15.1209 2.11696 15.4864ZM3.40996 18C2.11696 18 1 16.8789 1 15.4864C1 14.094 2.11696 13 3.40996 13C3.94011 13 4.41157 13.1378 4.82234 13.4364V13.0543H6V17.8893H4.82234V17.5887C4.47025 17.8622 3.94011 18 3.40996 18Z" fill="#1A2530"/>
<path d="M4 11L4.5 12H10.5L8 8.5L4 11Z" fill="#1A2530"/>
<path d="M12 12V13H13V12H17L12.5 4.5L8.5 7L12 12Z" fill="#1A2530"/>
<path d="M16.5 0.5L13 3L18.5 12H24L16.5 0.5Z" fill="#1A2530"/>
</g>
<defs>
<clipPath id="clip0_121_223">
<rect width="27" height="18" fill="white" transform="translate(0.5 0.5)"/>
</clipPath>
</defs>
</svg>
